{
  "source": "C:\\Users\\Peter\\Desktop\\stuff\\MIUN\\quantitative_research\\video_compression\\videos\\BVI-HD\\BVI-HD_CDVL_videos\\ORIG\\Hamster_1920x1080_60fps.mp4",
  "output": "C:\\Users\\Peter\\Desktop\\stuff\\MIUN\\quantitative_research\\video_compression\\compressed_videos\\BVI-HD\\av1\\3\\Hamster_1920x1080_60fps_av1.mkv",
  "codec": "av1",
  "ok": "Input #0, mov,mp4,m4a,3gp,3g2,mj2, from 'C:\\Users\\Peter\\Desktop\\stuff\\MIUN\\quantitative_research\\video_compression\\videos\\BVI-HD\\BVI-HD_CDVL_videos\\ORIG\\Hamster_1920x1080_60fps.mp4':\n  Metadata:\n    major_brand     : isom\n    minor_version   : 512\n    compatible_brands: isomiso2avc1mp41\n    encoder         : Lavf54.28.101\n  Duration: 00:00:05.00, start: 0.000000, bitrate: 208485 kb/s\n  Stream #0:0[0x1](und): Video: h264 (High 4:4:4 Predictive) (avc1 / 0x31637661), yuv420p(progressive), 1920x1080, 208481 kb/s, 60 fps, 60 tbr, 60 tbn (default)\n    Metadata:\n      handler_name    : VideoHandler\n      vendor_id       : [0][0][0][0]\n[out#0/matroska @ 000002777d2a9780] Codec AVOption b:a (set bitrate (in bits/s)) has not been used for any stream. The most likely reason is either wrong type (e.g. a video option with no video streams) or that it is a private option of some decoder which was not actually used for any stream.\nStream mapping:\n  Stream #0:0 -> #0:0 (h264 (native) -> av1 (libsvtav1))\nPress [q] to stop, [?] for help\nSvt[info]: -------------------------------------------\nSvt[info]: SVT [version]:\tSVT-AV1 Encoder Lib v3.1.0-19-g6ecfe8ec\nSvt[info]: SVT [build]  :\tGCC 15.2.0\t 64 bit\nSvt[info]: LIB Build date: Aug 17 2025 11:37:13\nSvt[info]: -------------------------------------------\nSvt[info]: Level of Parallelism: 5\nSvt[info]: Number of PPCS 93\nSvt[info]: [asm level on system : up to avx2]\nSvt[info]: [asm level selected : up to avx2]\nSvt[info]: -------------------------------------------\nSvt[info]: SVT [config]: main profile\ttier (auto)\tlevel (auto)\nSvt[info]: SVT [config]: width / height / fps numerator / fps denominator \t\t: 1920 / 1080 / 60 / 1\nSvt[info]: SVT [config]: bit-depth / color format \t\t\t\t\t: 8 / YUV420\nSvt[info]: SVT [config]: preset / tune / pred struct \t\t\t\t\t: 4 / PSNR / random access\nSvt[info]: SVT [config]: gop size / mini-gop size / key-frame type \t\t\t: 321 / 16 / key frame\nSvt[info]: SVT [config]: BRC mode / target bitrate (kbps)\t\t\t\t: VBR / 3000 \nSvt[info]: SVT [config]: AQ mode / Variance Boost \t\t\t\t\t: 2 / 0\nSvt[info]: SVT [config]: sharpness / luminance-based QP bias \t\t\t\t: 0 / 0\nSvt[info]: SVT [config]: QP scale compress strength \t\t\t\t\t: 0\nSvt[info]: -------------------------------------------\nOutput #0, matroska, to 'C:\\Users\\Peter\\Desktop\\stuff\\MIUN\\quantitative_research\\video_compression\\compressed_videos\\BVI-HD\\av1\\3\\Hamster_1920x1080_60fps_av1.mkv':\n  Metadata:\n    major_brand     : isom\n    minor_version   : 512\n    compatible_brands: isomiso2avc1mp41\n    encoder         : Lavf62.3.100\n  Stream #0:0(und): Video: av1 (AV01 / 0x31305641), yuv420p(tv, progressive), 1920x1080, q=2-31, 3000 kb/s, 60 fps, 1k tbn (default)\n    Metadata:\n      encoder         : Lavc62.11.100 libsvtav1\n      handler_name    : VideoHandler\n      vendor_id       : [0][0][0][0]\n    Side data:\n      cpb: bitrate max/min/avg: 0/0/3000000 buffer size: 3000000 vbv_delay: N/A\nframe=    0 fps=0.0 q=0.0 size=       0KiB time=N/A bitrate=N/A speed=N/A elapsed=0:00:01.21    \nframe=    0 fps=0.0 q=0.0 size=       0KiB time=N/A bitrate=N/A speed=N/A elapsed=0:00:01.81    \nframe=    0 fps=0.0 q=0.0 size=       0KiB time=N/A bitrate=N/A speed=N/A elapsed=0:00:02.33    \nframe=    0 fps=0.0 q=0.0 size=       0KiB time=N/A bitrate=N/A speed=N/A elapsed=0:00:02.90    \nframe=    0 fps=0.0 q=0.0 size=       0KiB time=N/A bitrate=N/A speed=N/A elapsed=0:00:03.53    \nframe=    0 fps=0.0 q=0.0 size=       0KiB time=N/A bitrate=N/A speed=N/A elapsed=0:00:04.15    \nframe=    0 fps=0.0 q=0.0 size=       0KiB time=N/A bitrate=N/A speed=N/A elapsed=0:00:04.79    \nframe=    0 fps=0.0 q=0.0 size=       0KiB time=N/A bitrate=N/A speed=N/A elapsed=0:00:05.38    \nframe=    0 fps=0.0 q=0.0 size=       0KiB time=N/A bitrate=N/A speed=N/A elapsed=0:00:05.98    \nframe=    1 fps=0.2 q=9.0 size=       1KiB time=00:00:00.00 bitrate=N/A speed=   0x elapsed=0:00:06.57    \nframe=    1 fps=0.1 q=9.0 size=       1KiB time=00:00:00.00 bitrate=N/A speed=   0x elapsed=0:00:07.16    \nframe=    1 fps=0.1 q=9.0 size=       1KiB time=00:00:00.00 bitrate=N/A speed=   0x elapsed=0:00:07.72    \nframe=    2 fps=0.2 q=39.0 size=       1KiB time=00:00:00.01 bitrate= 341.8kbits/s speed=0.00199x elapsed=0:00:08.37    \nframe=    4 fps=0.4 q=39.0 size=       1KiB time=00:00:00.05 bitrate= 113.9kbits/s speed=0.00561x elapsed=0:00:08.91    \nframe=    6 fps=0.6 q=39.0 size=       1KiB time=00:00:00.08 bitrate=  68.4kbits/s speed=0.00881x elapsed=0:00:09.46    \nframe=    7 fps=0.7 q=34.0 size=       1KiB time=00:00:00.10 bitrate=  57.0kbits/s speed=0.01x elapsed=0:00:09.99    \nframe=    8 fps=0.8 q=39.0 size=       1KiB time=00:00:00.11 bitrate=  48.8kbits/s speed=0.011x elapsed=0:00:10.58    \nframe=    9 fps=0.8 q=31.0 size=       1KiB time=00:00:00.13 bitrate=  42.7kbits/s speed=0.012x elapsed=0:00:11.13    \nframe=   11 fps=0.9 q=35.0 size=       1KiB time=00:00:00.16 bitrate=  34.2kbits/s speed=0.0143x elapsed=0:00:11.67    \nframe=   14 fps=1.1 q=39.0 size=       1KiB time=00:00:00.21 bitrate=  26.3kbits/s speed=0.0176x elapsed=0:00:12.32    \nframe=   17 fps=1.3 q=22.0 size=       1KiB time=00:00:00.25 bitrate=  22.8kbits/s speed=0.0194x elapsed=0:00:12.88    \nframe=   19 fps=1.4 q=35.0 size=       1KiB time=00:00:00.30 bitrate=  19.0kbits/s speed=0.0221x elapsed=0:00:13.58    \nframe=   21 fps=1.5 q=32.0 size=       1KiB time=00:00:00.31 bitrate=  18.0kbits/s speed=0.0223x elapsed=0:00:14.17    \nframe=   22 fps=1.5 q=33.0 size=       1KiB time=00:00:00.35 bitrate=  16.3kbits/s speed=0.0237x elapsed=0:00:14.74    \nframe=   23 fps=1.5 q=35.0 size=       1KiB time=00:00:00.36 bitrate=  15.5kbits/s speed=0.0238x elapsed=0:00:15.37    \nframe=   27 fps=1.7 q=35.0 size=       1KiB time=00:00:00.41 bitrate=  13.7kbits/s speed=0.0259x elapsed=0:00:16.05    \nframe=   29 fps=1.7 q=32.0 size=       1KiB time=00:00:00.46 bitrate=  12.2kbits/s speed=0.0279x elapsed=0:00:16.74    \nframe=   33 fps=1.9 q=24.0 size=       1KiB time=00:00:00.53 bitrate=  10.7kbits/s speed=0.0307x elapsed=0:00:17.37    \nframe=   35 fps=1.9 q=36.0 size=       1KiB time=00:00:00.56 bitrate=  10.1kbits/s speed=0.0316x elapsed=0:00:17.95    \nframe=   37 fps=2.0 q=34.0 size=       1KiB time=00:00:00.60 bitrate=   9.5kbits/s speed=0.0324x elapsed=0:00:18.53    \nframe=   38 fps=2.0 q=35.0 size=       1KiB time=00:00:00.61 bitrate=   9.2kbits/s speed=0.0323x elapsed=0:00:19.09    \nframe=   39 fps=2.0 q=36.0 size=       1KiB time=00:00:00.63 bitrate=   9.0kbits/s speed=0.0322x elapsed=0:00:19.68    \nframe=   42 fps=2.1 q=33.0 size=       1KiB time=00:00:00.68 bitrate=   8.3kbits/s speed=0.0337x elapsed=0:00:20.29    \nframe=   45 fps=2.2 q=32.0 size=       1KiB time=00:00:00.73 bitrate=   7.8kbits/s speed=0.0352x elapsed=0:00:20.81    \nframe=   47 fps=2.2 q=36.0 size=       1KiB time=00:00:00.76 bitrate=   7.4kbits/s speed=0.036x elapsed=0:00:21.32    \nframe=   49 fps=2.2 q=21.0 size=       1KiB time=00:00:00.80 bitrate=   7.1kbits/s speed=0.0366x elapsed=0:00:21.86    \nframe=   51 fps=2.3 q=37.0 size=       1KiB time=00:00:00.83 bitrate=   6.8kbits/s speed=0.0372x elapsed=0:00:22.38    \nframe=   53 fps=2.3 q=34.0 size=       1KiB time=00:00:00.86 bitrate=   6.6kbits/s speed=0.0378x elapsed=0:00:22.95    \nframe=   55 fps=2.3 q=37.0 size=       1KiB time=00:00:00.90 bitrate=   6.3kbits/s speed=0.0382x elapsed=0:00:23.56    \nframe=   57 fps=2.4 q=31.0 size=       1KiB time=00:00:00.93 bitrate=   6.1kbits/s speed=0.0387x elapsed=0:00:24.09    \nframe=   59 fps=2.4 q=37.0 size=       1KiB time=00:00:00.96 bitrate=   5.9kbits/s speed=0.0393x elapsed=0:00:24.62    \nframe=   61 fps=2.4 q=34.0 size=       1KiB time=00:00:01.00 bitrate=   5.7kbits/s speed=0.0397x elapsed=0:00:25.21    \nframe=   64 fps=2.5 q=33.0 size=       1KiB time=00:00:01.05 bitrate=   5.4kbits/s speed=0.0406x elapsed=0:00:25.84    \nframe=   65 fps=2.5 q=18.0 size=       1KiB time=00:00:01.06 bitrate=   5.3kbits/s speed=0.0403x elapsed=0:00:26.49    \nframe=   66 fps=2.4 q=32.0 size=       1KiB time=00:00:01.08 bitrate=   5.3kbits/s speed=0.0401x elapsed=0:00:27.03    \nframe=   67 fps=2.4 q=37.0 size=       1KiB time=00:00:01.10 bitrate=   5.2kbits/s speed=0.0397x elapsed=0:00:27.68    \nframe=   69 fps=2.4 q=34.0 size=       1KiB time=00:00:01.11 bitrate=   5.1kbits/s speed=0.0395x elapsed=0:00:28.28    \nframe=   70 fps=2.4 q=35.0 size=       1KiB time=00:00:01.15 bitrate=   5.0kbits/s speed=0.0397x elapsed=0:00:28.94    \nframe=   71 fps=2.4 q=37.0 size=       1KiB time=00:00:01.16 bitrate=   4.9kbits/s speed=0.0395x elapsed=0:00:29.51    \nframe=   73 fps=2.4 q=32.0 size=       1KiB time=00:00:01.20 bitrate=   4.7kbits/s speed=0.0398x elapsed=0:00:30.15    \nframe=   74 fps=2.4 q=36.0 size=       1KiB time=00:00:01.21 bitrate=   4.7kbits/s speed=0.0395x elapsed=0:00:30.78    \nframe=   75 fps=2.4 q=37.0 size=       1KiB time=00:00:01.23 bitrate=   4.6kbits/s speed=0.0393x elapsed=0:00:31.39    \nframe=   77 fps=2.4 q=34.0 size=       1KiB time=00:00:01.25 bitrate=   4.6kbits/s speed=0.039x elapsed=0:00:32.08    \nframe=   80 fps=2.4 q=38.0 size=       1KiB time=00:00:01.31 bitrate=   4.3kbits/s speed=0.0402x elapsed=0:00:32.72    \nframe=   82 fps=2.5 q=37.0 size=       1KiB time=00:00:01.35 bitrate=   4.2kbits/s speed=0.0405x elapsed=0:00:33.33    \nframe=   83 fps=2.5 q=36.0 size=       1KiB time=00:00:01.36 bitrate=   4.2kbits/s speed=0.0404x elapsed=0:00:33.85    \nframe=   85 fps=2.5 q=35.0 size=       1KiB time=00:00:01.40 bitrate=   4.1kbits/s speed=0.0407x elapsed=0:00:34.40    \nframe=   86 fps=2.5 q=38.0 size=       1KiB time=00:00:01.41 bitrate=   4.0kbits/s speed=0.0405x elapsed=0:00:34.95    \nframe=   87 fps=2.4 q=36.0 size=       1KiB time=00:00:01.43 bitrate=   4.0kbits/s speed=0.0403x elapsed=0:00:35.54    \nframe=   90 fps=2.5 q=39.0 size=       1KiB time=00:00:01.48 bitrate=   3.8kbits/s speed=0.0411x elapsed=0:00:36.08    \nframe=   92 fps=2.5 q=39.0 size=       1KiB time=00:00:01.51 bitrate=   3.8kbits/s speed=0.0414x elapsed=0:00:36.65    \nframe=   96 fps=2.6 q=39.0 size=       1KiB time=00:00:01.58 bitrate=   3.6kbits/s speed=0.0425x elapsed=0:00:37.23    \nframe=   99 fps=2.6 q=36.0 size=       1KiB time=00:00:01.61 bitrate=   3.5kbits/s speed=0.0428x elapsed=0:00:37.76    \nframe=  100 fps=2.6 q=39.0 size=       1KiB time=00:00:01.65 bitrate=   3.5kbits/s speed=0.0431x elapsed=0:00:38.29    \nframe=  102 fps=2.6 q=39.0 size=       1KiB time=00:00:01.68 bitrate=   3.4kbits/s speed=0.0433x elapsed=0:00:38.85    \nframe=  103 fps=2.6 q=36.0 size=       1KiB time=00:00:01.70 bitrate=   3.4kbits/s speed=0.0432x elapsed=0:00:39.39    \nframe=  106 fps=2.7 q=39.0 size=       1KiB time=00:00:01.75 bitrate=   3.3kbits/s speed=0.0438x elapsed=0:00:39.92    \nframe=  109 fps=2.7 q=32.0 size=       1KiB time=00:00:01.78 bitrate=   3.2kbits/s speed=0.044x elapsed=0:00:40.50    \nframe=  112 fps=2.7 q=38.0 size=       1KiB time=00:00:01.83 bitrate=   3.1kbits/s speed=0.0445x elapsed=0:00:41.16    \nframe=  114 fps=2.7 q=38.0 size=       1KiB time=00:00:01.88 bitrate=   3.0kbits/s speed=0.0451x elapsed=0:00:41.78    \nframe=  116 fps=2.7 q=37.0 size=       1KiB time=00:00:01.91 bitrate=   3.0kbits/s speed=0.0453x elapsed=0:00:42.30    \nframe=  118 fps=2.7 q=38.0 size=       1KiB time=00:00:01.95 bitrate=   2.9kbits/s speed=0.0454x elapsed=0:00:42.91    \nframe=  119 fps=2.7 q=35.0 size=       1KiB time=00:00:01.96 bitrate=   2.9kbits/s speed=0.0452x elapsed=0:00:43.49    \nframe=  122 fps=2.8 q=37.0 size=       1KiB time=00:00:02.01 bitrate=   2.8kbits/s speed=0.0458x elapsed=0:00:44.08    \nframe=  125 fps=2.8 q=32.0 size=       1KiB time=00:00:02.06 bitrate=   2.8kbits/s speed=0.0462x elapsed=0:00:44.70    \nframe=  128 fps=2.8 q=36.0 size=       1KiB time=00:00:02.11 bitrate=   2.7kbits/s speed=0.0468x elapsed=0:00:45.24    \nframe=  130 fps=2.8 q=37.0 size=       1KiB time=00:00:02.15 bitrate=   2.6kbits/s speed=0.047x elapsed=0:00:45.78    \nframe=  132 fps=2.8 q=36.0 size=       1KiB time=00:00:02.18 bitrate=   2.6kbits/s speed=0.0471x elapsed=0:00:46.35    \nframe=  134 fps=2.9 q=36.0 size=       1KiB time=00:00:02.21 bitrate=   2.6kbits/s speed=0.0473x elapsed=0:00:46.90    \nframe=  135 fps=2.8 q=36.0 size=       1KiB time=00:00:02.23 bitrate=   2.6kbits/s speed=0.047x elapsed=0:00:47.53    \nframe=  138 fps=2.9 q=36.0 size=       1KiB time=00:00:02.28 bitrate=   2.5kbits/s speed=0.0475x elapsed=0:00:48.11    \nframe=  141 fps=2.9 q=33.0 size=       1KiB time=00:00:02.31 bitrate=   2.5kbits/s speed=0.0476x elapsed=0:00:48.69    \nframe=  144 fps=2.9 q=35.0 size=       1KiB time=00:00:02.38 bitrate=   2.4kbits/s speed=0.0484x elapsed=0:00:49.25    \nframe=  147 fps=3.0 q=37.0 size=       1KiB time=00:00:02.43 bitrate=   2.3kbits/s speed=0.0489x elapsed=0:00:49.79    \nframe=  149 fps=3.0 q=35.0 size=       1KiB time=00:00:02.46 bitrate=   2.3kbits/s speed=0.049x elapsed=0:00:50.35    \nframe=  150 fps=2.9 q=38.0 size=       1KiB time=00:00:02.48 bitrate=   2.3kbits/s speed=0.0488x elapsed=0:00:50.92    \nframe=  151 fps=2.9 q=37.0 size=       1KiB time=00:00:02.50 bitrate=   2.3kbits/s speed=0.0486x elapsed=0:00:51.45    \nframe=  154 fps=3.0 q=38.0 size=       1KiB time=00:00:02.55 bitrate=   2.2kbits/s speed=0.049x elapsed=0:00:51.99    \nframe=  158 fps=3.0 q=41.0 size=       1KiB time=00:00:02.61 bitrate=   2.2kbits/s speed=0.0498x elapsed=0:00:52.49    \nframe=  161 fps=3.0 q=21.0 size=       1KiB time=00:00:02.65 bitrate=   2.1kbits/s speed=0.05x elapsed=0:00:53.02    \nframe=  163 fps=3.0 q=41.0 size=       1KiB time=00:00:02.70 bitrate=   2.1kbits/s speed=0.0504x elapsed=0:00:53.55    \nframe=  166 fps=3.1 q=42.0 size=       1KiB time=00:00:02.73 bitrate=   2.1kbits/s speed=0.0505x elapsed=0:00:54.10    \nframe=  167 fps=3.1 q=41.0 size=       1KiB time=00:00:02.76 bitrate=   2.1kbits/s speed=0.0506x elapsed=0:00:54.70    \nframe=  170 fps=3.1 q=42.0 size=       1KiB time=00:00:02.81 bitrate=   2.0kbits/s speed=0.051x elapsed=0:00:55.22    \nframe=  173 fps=3.1 q=36.0 size=       1KiB time=00:00:02.86 bitrate=   2.0kbits/s speed=0.0513x elapsed=0:00:55.84    \nframe=  177 fps=3.1 q=24.0 size=       1KiB time=00:00:02.93 bitrate=   1.9kbits/s speed=0.052x elapsed=0:00:56.43    \nframe=  179 fps=3.1 q=41.0 size=       1KiB time=00:00:02.96 bitrate=   1.9kbits/s speed=0.0521x elapsed=0:00:56.95    \nframe=  182 fps=3.2 q=43.0 size=       1KiB time=00:00:03.01 bitrate=   1.9kbits/s speed=0.0525x elapsed=0:00:57.46    \nframe=  183 fps=3.2 q=41.0 size=       1KiB time=00:00:03.03 bitrate=   1.9kbits/s speed=0.0523x elapsed=0:00:58.03    \nframe=  186 fps=3.2 q=43.0 size=       1KiB time=00:00:03.08 bitrate=   1.8kbits/s speed=0.0525x elapsed=0:00:58.67    \nframe=  189 fps=3.2 q=38.0 size=       1KiB time=00:00:03.13 bitrate=   1.8kbits/s speed=0.0529x elapsed=0:00:59.19    \nframe=  192 fps=3.2 q=43.0 size=       1KiB time=00:00:03.18 bitrate=   1.8kbits/s speed=0.0532x elapsed=0:00:59.79    \nframe=  194 fps=3.2 q=43.0 size=       1KiB time=00:00:03.21 bitrate=   1.8kbits/s speed=0.0533x elapsed=0:01:00.32    \nframe=  196 fps=3.2 q=43.0 size=       1KiB time=00:00:03.25 bitrate=   1.8kbits/s speed=0.0534x elapsed=0:01:00.89    \nframe=  198 fps=3.2 q=43.0 size=       1KiB time=00:00:03.28 bitrate=   1.7kbits/s speed=0.0535x elapsed=0:01:01.42    \nframe=  201 fps=3.2 q=37.0 size=       1KiB time=00:00:03.33 bitrate=   1.7kbits/s speed=0.0538x elapsed=0:01:01.99    \nframe=  205 fps=3.3 q=38.0 size=       1KiB time=00:00:03.40 bitrate=   1.7kbits/s speed=0.0544x elapsed=0:01:02.54    \nframe=  207 fps=3.3 q=41.0 size=       1KiB time=00:00:03.43 bitrate=   1.7kbits/s speed=0.0544x elapsed=0:01:03.08    \nframe=  209 fps=3.3 q=30.0 size=       1KiB time=00:00:03.46 bitrate=   1.6kbits/s speed=0.0545x elapsed=0:01:03.63    \nframe=  213 fps=3.3 q=37.0 size=       1KiB time=00:00:03.53 bitrate=   1.6kbits/s speed=0.0551x elapsed=0:01:04.17    \nframe=  217 fps=3.4 q=38.0 size=       1KiB time=00:00:03.60 bitrate=   1.6kbits/s speed=0.0556x elapsed=0:01:04.74    \nframe=  217 fps=3.3 q=38.0 size=       1KiB time=00:00:03.60 bitrate=   1.6kbits/s speed=0.0551x elapsed=0:01:05.31    \nframe=  221 fps=3.4 q=37.0 size=       1KiB time=00:00:03.66 bitrate=   1.6kbits/s speed=0.0556x elapsed=0:01:05.91    \nframe=  223 fps=3.4 q=39.0 size=       1KiB time=00:00:03.70 bitrate=   1.5kbits/s speed=0.0557x elapsed=0:01:06.43    \nframe=  225 fps=3.4 q=32.0 size=       1KiB time=00:00:03.73 bitrate=   1.5kbits/s speed=0.0558x elapsed=0:01:06.95    \nframe=  227 fps=3.4 q=37.0 size=       1KiB time=00:00:03.76 bitrate=   1.5kbits/s speed=0.0558x elapsed=0:01:07.47    \nframe=  229 fps=3.4 q=33.0 size=       1KiB time=00:00:03.80 bitrate=   1.5kbits/s speed=0.0559x elapsed=0:01:08.01    \nframe=  233 fps=3.4 q=37.0 size=       1KiB time=00:00:03.86 bitrate=   1.5kbits/s speed=0.0564x elapsed=0:01:08.53    \nframe=  233 fps=3.4 q=37.0 size=       1KiB time=00:00:03.86 bitrate=   1.5kbits/s speed=0.056x elapsed=0:01:09.06    \nframe=  233 fps=3.3 q=37.0 size=       1KiB time=00:00:03.86 bitrate=   1.5kbits/s speed=0.0556x elapsed=0:01:09.59    \nframe=  237 fps=3.4 q=33.0 size=       1KiB time=00:00:03.93 bitrate=   1.4kbits/s speed=0.0561x elapsed=0:01:10.12    \nframe=  239 fps=3.4 q=36.0 size=       1KiB time=00:00:03.96 bitrate=   1.4kbits/s speed=0.0561x elapsed=0:01:10.67    \nframe=  243 fps=3.4 q=36.0 size=       1KiB time=00:00:04.03 bitrate=   1.4kbits/s speed=0.0566x elapsed=0:01:11.20    \nframe=  247 fps=3.4 q=36.0 size=       1KiB time=00:00:04.10 bitrate=   1.4kbits/s speed=0.0571x elapsed=0:01:11.74    \nframe=  249 fps=3.4 q=32.0 size=       1KiB time=00:00:04.13 bitrate=   1.4kbits/s speed=0.0572x elapsed=0:01:12.28    \nframe=  249 fps=3.4 q=32.0 size=       1KiB time=00:00:04.13 bitrate=   1.4kbits/s speed=0.0568x elapsed=0:01:12.81    \nframe=  253 fps=3.4 q=32.0 size=       1KiB time=00:00:04.20 bitrate=   1.4kbits/s speed=0.0573x elapsed=0:01:13.35    \nframe=  255 fps=3.5 q=35.0 size=       1KiB time=00:00:04.23 bitrate=   1.3kbits/s speed=0.0573x elapsed=0:01:13.89    \nframe=  257 fps=3.5 q=24.0 size=       1KiB time=00:00:04.26 bitrate=   1.3kbits/s speed=0.0573x elapsed=0:01:14.47    \nframe=  261 fps=3.5 q=32.0 size=       1KiB time=00:00:04.33 bitrate=   1.3kbits/s speed=0.0578x elapsed=0:01:15.02    \nframe=  263 fps=3.5 q=35.0 size=       1KiB time=00:00:04.36 bitrate=   1.3kbits/s speed=0.0578x elapsed=0:01:15.61    \nframe=  265 fps=3.5 q=31.0 size=       1KiB time=00:00:04.40 bitrate=   1.3kbits/s speed=0.0578x elapsed=0:01:16.12    \nframe=  265 fps=3.5 q=31.0 size=       1KiB time=00:00:04.40 bitrate=   1.3kbits/s speed=0.0573x elapsed=0:01:16.74    \nframe=  269 fps=3.5 q=35.0 size=       1KiB time=00:00:04.43 bitrate=   1.3kbits/s speed=0.0572x elapsed=0:01:17.46    \nframe=  271 fps=3.5 q=38.0 size=       1KiB time=00:00:04.46 bitrate=   1.3kbits/s speed=0.0572x elapsed=0:01:18.12    \nframe=  275 fps=3.5 q=38.0 size=       1KiB time=00:00:04.56 bitrate=   1.2kbits/s speed=0.058x elapsed=0:01:18.68    \nframe=  279 fps=3.5 q=38.0 size=       1KiB time=00:00:04.63 bitrate=   1.2kbits/s speed=0.0585x elapsed=0:01:19.22    \nframe=  281 fps=3.5 q=35.0 size=       1KiB time=00:00:04.66 bitrate=   1.2kbits/s speed=0.0584x elapsed=0:01:19.84    \nframe=  285 fps=3.5 q=38.0 size=       1KiB time=00:00:04.73 bitrate=   1.2kbits/s speed=0.0588x elapsed=0:01:20.46    \nframe=  293 fps=3.6 q=35.0 size=       1KiB time=00:00:04.86 bitrate=   1.2kbits/s speed=0.0601x elapsed=0:01:21.01    \n[out#0/matroska @ 000002777d2a9780] video:1930KiB audio:0KiB subtitle:0KiB other streams:0KiB global headers:0KiB muxing overhead: 0.108398%\nframe=  300 fps=3.7 q=38.0 Lsize=    1932KiB time=00:00:04.98 bitrate=3175.7kbits/s speed=0.0613x elapsed=0:01:21.29    \n",
  "seconds": 81.86181569099426,
  "probe_out": {}
}